<?xml version="1.0" standalone="no"?>
<!DOCTYPE svg PUBLIC "-//W3C//DTD SVG 20010904//EN"
 "http://www.w3.org/TR/2001/REC-SVG-20010904/DTD/svg10.dtd">
<svg version="1.0" xmlns="http://www.w3.org/2000/svg"
 width="750.000000pt" height="750.000000pt" viewBox="0 0 750.000000 750.000000"
 preserveAspectRatio="xMidYMid meet">
<metadata>
Created by potrace 1.11, written by Peter Selinger 2001-2013
</metadata>
<g transform="translate(0.000000,750.000000) scale(0.100000,-0.100000)"
fill="#000000" stroke="none">
<path d="M3505 7304 c-16 -2 -79 -9 -140 -15 -1364 -136 -2563 -1103 -2995
-2419 -127 -385 -175 -692 -175 -1120 0 -279 7 -376 46 -605 216 -1283 1149
-2368 2389 -2775 385 -127 692 -175 1120 -175 279 0 376 7 605 46 1283 216
2368 1149 2775 2389 127 385 175 692 175 1120 0 279 -7 376 -46 605 -185 1101
-906 2075 -1908 2575 -385 192 -738 299 -1171 356 -117 15 -600 28 -675 18z
m2515 -3184 l0 -1310 -2245 0 -2245 0 0 1310 0 1310 2245 0 2245 0 0 -1310z
m195 -1735 c0 -264 -3 -278 -78 -314 -43 -21 -50 -21 -890 -21 l-846 0 4 -27
c3 -16 16 -136 30 -268 14 -132 28 -266 32 -297 l6 -58 303 0 304 0 0 -80 0
-80 -1305 0 -1306 0 3 78 3 77 303 3 c166 1 302 6 302 10 0 19 60 580 65 610
l6 32 -846 0 c-916 0 -883 -2 -935 54 l-25 28 -3 244 -3 244 2438 -2 2438 -3
0 -230z"/>
<path d="M1730 5300 c-11 -11 -20 -29 -20 -40 0 -26 34 -60 60 -60 26 0 60 34
60 60 0 26 -34 60 -60 60 -11 0 -29 -9 -40 -20z"/>
<path d="M1750 4615 l0 -415 2030 0 2030 0 0 415 0 415 -2030 0 -2030 0 0
-415z m304 117 c3 -5 -17 -31 -44 -57 -28 -27 -50 -54 -50 -60 0 -6 22 -33 50
-60 33 -33 47 -52 40 -59 -7 -7 -30 9 -70 49 -33 33 -60 64 -60 69 0 12 111
126 122 126 4 0 9 -4 12 -8z m3531 -52 l59 -60 -64 -65 c-43 -43 -68 -61 -74
-55 -7 7 8 29 44 65 l54 55 -52 53 c-46 46 -56 67 -33 67 4 0 33 -27 66 -60z
m-2205 0 l0 -50 45 0 45 0 0 50 c0 47 2 50 25 50 l25 0 0 -120 0 -120 -25 0
c-23 0 -25 3 -25 51 l0 50 -42 -3 -43 -3 -3 -47 c-3 -40 -6 -48 -23 -48 -18 0
-19 8 -19 120 0 113 1 120 20 120 17 0 20 -7 20 -50z m338 33 c-2 -12 -14 -19
-36 -21 l-32 -3 0 -100 c0 -92 -1 -99 -20 -99 -19 0 -20 7 -20 100 l0 100 -35
0 c-28 0 -35 4 -35 20 0 19 7 20 91 20 81 0 90 -2 87 -17z m117 -58 c11 -41
22 -75 26 -75 4 0 15 34 25 75 17 74 18 75 49 75 l32 0 9 -120 9 -120 -22 0
c-20 0 -23 5 -24 38 0 20 -3 55 -7 76 l-7 40 -19 -78 c-18 -72 -21 -77 -45
-74 -22 3 -27 12 -45 77 -11 41 -21 70 -22 65 -1 -5 -5 -39 -9 -76 -6 -59 -9
-68 -27 -68 -19 0 -20 4 -13 103 8 131 10 137 44 137 26 0 29 -4 46 -75z m225
-25 l0 -100 55 0 c48 0 55 -2 55 -20 0 -18 -7 -20 -63 -20 -36 0 -68 5 -75 12
-8 8 -12 49 -12 120 0 101 1 108 20 108 19 0 20 -7 20 -100z"/>
<path d="M1750 3755 l0 -375 935 0 935 0 0 375 0 375 -935 0 -935 0 0 -375z"/>
<path d="M3937 4123 c-4 -3 -7 -172 -7 -375 l0 -368 940 0 940 0 0 375 0 375
-933 0 c-514 0 -937 -3 -940 -7z"/>
<path d="M1750 3115 l0 -185 935 0 935 0 0 185 0 185 -935 0 -935 0 0 -185z
m1680 75 c0 -20 -7 -20 -750 -20 -743 0 -750 0 -750 20 0 20 7 20 750 20 743
0 750 0 750 -20z m0 -170 c0 -20 -7 -20 -750 -20 -743 0 -750 0 -750 20 0 20
7 20 750 20 743 0 750 0 750 -20z"/>
<path d="M3940 3115 l0 -185 935 0 935 0 0 185 0 185 -935 0 -935 0 0 -185z
m1680 75 c0 -20 -7 -20 -750 -20 -743 0 -750 0 -750 20 0 20 7 20 750 20 743
0 750 0 750 -20z m0 -170 c0 -20 -7 -20 -750 -20 -743 0 -750 0 -750 20 0 20
7 20 750 20 743 0 750 0 750 -20z"/>
</g>
</svg>
